HIERARCHY
ROOT Hips
{
	OFFSET 0.000000 0.000000 0.000000 
	CHANNELS 6 Xposition Yposition Zposition Zrotation Yrotation Xrotation
	JOINT LeftUpLeg
	{
		OFFSET 1.363060 -1.794630 0.839290 
		CHANNELS 3 Zrotation Yrotation Xrotation
		JOINT LeftLeg
		{
			OFFSET 2.448110 -6.726130 0.000000 
			CHANNELS 3 Zrotation Yrotation Xrotation
			JOINT LeftFoot
			{
				OFFSET 2.562200 -7.039590 0.000000 
				CHANNELS 3 Zrotation Yrotation Xrotation
				JOINT LeftToeBase
				{
					OFFSET 0.157640 -0.433110 2.322550 
					CHANNELS 3 Zrotation Yrotation Xrotation
					End Site
					{
						OFFSET 0.000000 0.000000 0.000000 
					}
				}
			}
		}
	}
	JOINT RightUpLeg
	{
		OFFSET -1.305520 -1.794630 0.839290 
		CHANNELS 3 Zrotation Yrotation Xrotation
		JOINT RightLeg
		{
			OFFSET -2.542530 -6.985550 0.000000 
			CHANNELS 3 Zrotation Yrotation Xrotation
			JOINT RightFoot
			{
				OFFSET -2.568260 -7.056230 0.000000 
				CHANNELS 3 Zrotation Yrotation Xrotation
				JOINT RightToeBase
				{
					OFFSET -0.164730 -0.452590 2.363150 
					CHANNELS 3 Zrotation Yrotation Xrotation
					End Site
					{
						OFFSET 0.000000 0.000000 0.000000 
					}
				}
			}
		}
	}
	JOINT Spine
	{
		OFFSET 0.028270 2.035590 -0.193380 
		CHANNELS 3 Zrotation Yrotation Xrotation
		JOINT Spine1
		{
			OFFSET 0.056720 2.048850 -0.042750 
			CHANNELS 3 Zrotation Yrotation Xrotation
			JOINT Neck1
			{
				OFFSET -0.054170 1.746240 0.172020 
				CHANNELS 3 Zrotation Yrotation Xrotation
				JOINT Head
				{
					OFFSET 0.104070 1.761360 -0.123970 
					CHANNELS 3 Zrotation Yrotation Xrotation
					End Site
					{
						OFFSET 0.000000 0.000000 0.000000 
					}
				}
			}
			JOINT LeftArm
			{
				OFFSET 3.362410 1.200890 -0.311210 
				CHANNELS 3 Zrotation Yrotation Xrotation
				JOINT LeftForeArm
				{
					OFFSET 4.983000 -0.000000 -0.000000 
					CHANNELS 3 Zrotation Yrotation Xrotation
					JOINT LeftHand
					{
						OFFSET 3.483560 -0.000000 -0.000000 
						CHANNELS 3 Zrotation Yrotation Xrotation
						JOINT LeftHandIndex1
						{
							OFFSET 0.715260 -0.000000 -0.000000 
							CHANNELS 3 Zrotation Yrotation Xrotation
							End Site
							{
								OFFSET 0.000000 0.000000 0.000000 
							}
						}
					}
				}
			}
			JOINT RightArm
			{
				OFFSET -3.136600 1.374050 -0.404650 
				CHANNELS 3 Zrotation Yrotation Xrotation
				JOINT RightForeArm
				{
					OFFSET -5.241900 -0.000000 -0.000000 
					CHANNELS 3 Zrotation Yrotation Xrotation
					JOINT RightHand
					{
						OFFSET -3.444170 -0.000000 -0.000000 
						CHANNELS 3 Zrotation Yrotation Xrotation
						JOINT RightHandIndex1
						{
							OFFSET -0.622530 -0.000000 -0.000000 
							CHANNELS 3 Zrotation Yrotation Xrotation
							End Site
							{
								OFFSET 0.000000 0.000000 0.000000 
							}
						}
					}
				}
			}
		}
	}
}
MOTION
Frames: 17
Frame Time: 0.041667
10.204111 18.168215 -1.815277 3.115993 3.507624 7.348254 -19.165347 -1.254122 0.053959 -3.106116 3.846806 13.543419 3.133238 -7.145040 6.430004 0.205700 2.920300 8.057100 10.782457 3.103805 -35.845554 2.447614 -11.011623 23.461707 -1.746007 -1.820278 12.711741 -0.105000 2.089000 -5.751800 0.932508 -1.596516 -3.761100 0.299675 -1.553826 -1.289660 6.167210 -0.738168 13.199706 1.495300 -0.063900 5.878600 -70.794353 -27.238972 38.100931 19.850476 -24.188344 -6.457353 -0.421979 1.778582 -13.850272 -7.125000 0.000000 0.000000 91.323457 -24.745087 6.947969 -8.871401 20.112829 -3.284820 1.884528 1.365910 11.683496 7.125000 0.000000 0.000000 
10.204900 18.134277 -1.611312 3.350548 3.823185 7.344496 -19.379249 -1.147174 1.517349 -3.236793 3.203630 12.014283 2.966412 -6.727633 6.303486 0.142200 2.430400 6.696800 10.278264 3.475650 -36.077175 2.632333 -10.759948 22.540365 -1.847837 -1.725329 12.755153 -0.133900 2.358800 -6.498300 0.946406 -1.780941 -3.738837 0.411009 -1.678413 -1.079942 6.292665 -0.662316 13.260162 1.632400 -0.037900 5.842300 -70.446951 -27.879216 38.636819 20.497355 -24.721653 -6.745396 -0.339768 1.765195 -14.350553 -7.125000 0.000000 0.000000 91.206635 -24.958681 6.699727 -8.774989 19.997550 -3.245618 2.052422 1.138344 11.651659 7.125000 0.000000 0.000000 
10.209072 18.093687 -1.391675 3.904068 4.100003 7.155936 -19.980762 -1.066111 3.458807 -3.370508 2.457052 10.240986 2.731390 -6.205267 6.189908 0.119600 2.229800 6.141200 9.580399 3.544457 -36.191219 2.783890 -10.474168 21.617729 -1.945990 -1.765357 13.548357 -0.140800 2.418500 -6.663800 0.950147 -2.001993 -3.707554 0.547190 -1.822460 -0.848058 6.153951 -0.621213 13.290267 1.504700 -0.011900 5.811200 -70.154153 -28.407517 38.907056 21.136072 -25.267127 -7.049265 -0.256517 1.749504 -14.767490 -7.125000 0.000000 0.000000 90.968064 -25.476953 7.106580 -8.829399 20.089672 -3.244448 2.103059 1.062512 11.039555 7.125000 0.000000 0.000000 
10.207832 18.044415 -1.190979 4.127510 4.578172 6.881139 -20.158064 -1.131726 5.454733 -3.486526 1.686641 8.440358 2.506193 -5.666242 6.254261 0.090200 1.937200 5.332200 9.142875 3.638321 -36.192433 2.938445 -10.169895 20.692905 -1.942579 -2.025875 14.259746 -0.123100 2.261700 -6.229400 0.960217 -2.175146 -3.672152 0.514728 -1.949608 -0.669280 6.000814 -0.664821 13.394523 1.348600 -0.015500 5.950100 -69.848508 -29.081844 39.269293 21.835627 -25.799192 -7.356180 -0.159029 1.718827 -14.722367 -7.125000 0.000000 0.000000 90.924527 -25.854806 7.681506 -8.979018 20.323783 -3.304263 2.106562 1.108766 10.086895 7.125000 0.000000 0.000000 
10.196895 17.991310 -0.999417 4.132468 5.044736 6.618571 -20.091827 -1.180763 7.277219 -3.567256 0.989425 6.817669 2.267712 -5.007825 6.069746 0.026000 1.040500 2.860200 8.940735 3.800884 -36.121942 3.102839 -9.847485 19.780149 -1.976662 -2.135064 14.721915 -0.076000 1.778700 -4.894500 0.999981 -2.308334 -3.629033 0.627024 -2.047896 -0.574273 5.920711 -0.737225 13.388397 1.286700 -0.051200 5.970000 -69.571231 -29.758069 39.951024 22.556931 -26.360786 -7.701687 -0.165498 1.703362 -15.030921 -7.125000 0.000000 0.000000 91.065175 -25.993561 7.509934 -9.109770 20.475816 -3.343839 2.086067 1.130045 9.883265 7.125000 0.000000 0.000000 
10.182914 17.942151 -0.806502 4.140729 5.422019 6.599261 -20.079413 -1.006003 9.961353 -3.725548 -0.602118 3.000526 1.706438 -3.385911 6.517350 0.003400 0.378400 1.039800 8.845745 3.991888 -36.350672 3.243303 -9.641444 19.068397 -2.018042 -2.169367 14.962714 -0.076300 1.781500 -4.902100 1.060362 -2.431651 -3.633899 0.860059 -2.144686 -0.605497 5.785517 -0.773508 13.416057 1.183300 -0.071600 5.985400 -69.522209 -30.219918 40.435262 23.224445 -26.911675 -8.051214 -0.159922 1.697138 -15.303092 -7.125000 0.000000 0.000000 91.023165 -26.424379 7.550295 -9.249032 20.630428 -3.371685 2.055746 1.161919 9.686681 7.125000 0.000000 0.000000 
10.172766 17.893443 -0.625312 3.812307 5.728378 6.736894 -19.595278 -1.194279 10.330162 -3.716895 -0.620664 3.042980 1.761283 -3.563392 6.284562 0.001200 0.223700 0.614600 8.834710 4.456437 -36.664428 3.352676 -9.473167 18.360334 -1.612715 -3.158342 14.628201 -0.148900 2.486900 -6.853300 1.115383 -2.523720 -3.684151 0.869487 -2.203684 -0.740206 5.700235 -0.783200 13.479925 1.133000 -0.077300 6.105400 -69.511716 -30.615886 40.481162 23.980958 -27.479191 -8.400011 -0.018153 1.642897 -15.185195 -7.125000 0.000000 0.000000 90.858033 -27.004014 8.287260 -9.435457 20.900995 -3.427416 2.005012 1.254453 8.867090 7.125000 0.000000 0.000000 
10.192497 17.834926 -0.395527 4.670393 6.214622 6.460059 -20.640501 -1.389957 11.825196 -3.703108 -0.657401 3.025394 1.834962 -4.065977 5.786148 0.000800 0.183300 0.503700 8.116176 3.642209 -36.585201 3.380858 -9.163763 17.650029 -1.704172 -3.357848 15.988457 -0.166300 2.627100 -7.242300 1.073006 -2.746033 -3.596256 0.858806 -2.337874 -0.269440 5.721520 -0.792413 13.458174 1.216000 -0.097600 6.095400 -69.540873 -31.063487 40.290302 24.838824 -28.177694 -8.836122 0.125541 1.567042 -14.881784 -7.125000 0.000000 0.000000 90.716371 -27.254920 8.460770 -9.527942 21.068086 -3.444990 1.952982 1.296884 8.557948 7.125000 0.000000 0.000000 
10.192497 17.777761 -0.186827 4.581213 6.346948 6.356682 -20.468019 -1.303950 12.609717 -3.674112 -0.690539 3.078533 1.992922 -4.731646 5.636004 0.004500 0.431200 1.184900 7.952732 4.052462 -36.619858 3.468821 -9.016025 17.187036 -1.813487 -3.169835 16.169550 -0.108500 2.123400 -5.846900 1.114606 -2.775815 -3.543253 0.959063 -2.375269 -0.004049 5.748680 -0.778988 13.390776 1.273800 -0.103400 6.024100 -69.499505 -31.415329 40.652930 25.732269 -28.925315 -9.323735 0.134802 1.518194 -15.131386 -7.125000 0.000000 0.000000 90.559486 -27.465430 8.508899 -9.599722 21.159232 -3.444806 1.962656 1.245823 8.518312 7.125000 0.000000 0.000000 
10.178629 17.716876 0.000564 4.402792 6.653977 6.310635 -20.112496 -1.464531 13.239967 -3.659703 -0.718358 3.118127 2.097215 -5.152121 5.548444 0.008100 0.580700 1.595800 7.772128 4.684855 -36.712845 3.495828 -9.022169 17.001584 -1.661857 -3.396065 15.322158 -0.148700 2.484700 -6.847200 1.172250 -2.877097 -3.579014 1.088885 -2.428899 -0.238779 5.660488 -0.764931 13.322331 1.179600 -0.093400 6.002700 -69.249867 -31.547021 41.556944 26.621378 -29.634721 -9.779825 0.078812 1.460978 -16.096947 -7.125000 0.000000 0.000000 90.540513 -27.859891 8.593921 -9.704940 21.257761 -3.448122 1.958729 1.202156 8.656513 7.125000 0.000000 0.000000 
10.184718 17.654977 0.228206 4.611325 7.003228 6.302247 -20.317285 -1.624225 14.170771 -3.645947 -0.747569 3.130349 2.182382 -5.585940 5.311026 0.006200 0.508800 1.398100 7.411004 4.691310 -36.720670 3.498053 -8.946816 16.725172 -1.554487 -3.712589 15.277518 -0.241000 3.159600 -8.723300 1.182632 -2.999776 -3.569394 0.995858 -2.502646 -0.082929 5.458154 -0.847852 13.282807 1.006700 -0.128900 5.989400 -69.448856 -31.675214 41.565200 27.323347 -30.223687 -10.190412 0.167740 1.414012 -16.012534 -7.125000 0.000000 0.000000 90.658631 -28.155164 8.380151 -9.788991 21.373741 -3.461299 1.931076 1.196736 8.768518 7.125000 0.000000 0.000000 
10.184830 17.596459 0.446716 4.985364 7.546806 6.440932 -20.596584 -2.074152 15.028423 -3.651469 -0.779272 3.111024 2.290822 -6.121190 5.314073 0.014400 0.775300 2.130600 6.677841 4.972071 -36.719186 3.475931 -8.939401 16.576823 -1.657617 -3.516005 15.123583 -0.046600 1.393200 -3.831400 1.192180 -3.197207 -3.570156 1.023647 -2.612203 0.068181 5.321676 -0.999882 13.270072 0.895700 -0.202400 6.012500 -69.440900 -31.823238 41.796102 28.095511 -30.862996 -10.662457 0.240630 1.380756 -16.114418 -7.125000 0.000000 0.000000 90.766615 -28.363229 8.319627 -9.941874 21.586239 -3.545946 1.946314 1.235777 8.275688 7.125000 0.000000 0.000000 
10.185394 17.528471 0.666240 5.189376 8.162491 6.509330 -20.720564 -2.557785 15.922413 -3.655232 -0.807221 3.099743 2.343726 -6.413056 5.229971 0.022500 0.969500 2.664800 6.239581 5.086030 -36.806497 3.419002 -9.050143 16.729203 -1.630735 -3.535229 14.693200 -0.022000 0.957700 -2.632400 1.228670 -3.445483 -3.555470 1.100940 -2.754234 0.286585 5.206631 -1.071564 13.293692 0.822800 -0.240500 6.092300 -69.158529 -31.950049 42.425723 28.942536 -31.541437 -11.159974 0.187740 1.339535 -16.964723 -7.125000 0.000000 0.000000 90.535231 -28.651048 8.836434 -10.097997 21.811382 -3.616069 1.959132 1.274105 7.509437 7.125000 0.000000 0.000000 
10.185056 17.465331 0.883961 5.116770 8.629456 6.503733 -20.590845 -2.859191 16.691376 -3.648975 -0.829601 3.112162 2.346876 -6.465563 5.103987 0.008400 0.591700 1.625900 6.270841 5.010757 -36.972706 3.346655 -9.206210 16.953489 -1.038572 -4.838201 14.270795 -0.210700 2.955000 -8.153500 1.305114 -3.676798 -3.552768 1.221126 -2.884958 0.416177 5.061322 -1.017439 13.340266 0.710700 -0.213600 6.236100 -69.853834 -31.940620 41.616497 29.543693 -32.057929 -11.582421 0.238359 1.303505 -16.192156 -7.125000 0.000000 0.000000 90.177113 -28.884071 9.236761 -10.197902 21.916447 -3.638965 1.957667 1.285881 7.139273 7.125000 0.000000 0.000000 
10.180546 17.422937 1.096157 5.072392 9.104126 6.537142 -20.438175 -3.205427 17.428895 -3.646570 -0.853954 3.117177 2.318328 -6.396291 5.124140 0.000000 -0.024700 -0.067900 6.363577 4.761975 -37.170981 3.280870 -9.362507 17.286405 -0.810729 -5.282003 13.929835 -0.357300 3.840000 -10.626900 1.375426 -3.875703 -3.597971 1.376227 -2.985807 0.245952 4.941191 -1.039931 13.348070 0.602700 -0.223700 6.362900 -70.467252 -31.866700 41.118498 30.208506 -32.596252 -12.026796 0.325581 1.257359 -15.587618 -7.125000 0.000000 0.000000 90.061471 -29.077343 8.925655 -10.224116 21.897265 -3.639938 1.955899 1.278016 7.259875 7.125000 0.000000 0.000000 
10.176487 17.373778 1.309818 4.996507 9.535742 6.715537 -20.209104 -3.551472 18.073451 -3.644405 -0.875597 3.128701 2.332701 -6.478572 5.114388 0.001200 -0.221000 -0.607300 6.452220 4.649973 -37.400806 3.228522 -9.545865 17.717852 -0.896199 -4.960130 13.435991 -0.331000 3.697800 -10.228100 1.429424 -3.996083 -3.633264 1.446350 -3.048766 0.137362 4.855343 -1.178828 13.220130 0.550100 -0.302100 6.347300 -70.682496 -31.870339 41.302576 30.913985 -33.138515 -12.471773 0.402829 1.208667 -15.680750 -7.125000 0.000000 0.000000 89.881850 -29.365334 9.038857 -10.272546 21.942238 -3.632298 1.922414 1.286256 6.906659 7.125000 0.000000 0.000000 
10.174457 17.314584 1.528102 5.109640 9.815234 6.903292 -20.229881 -3.749402 18.723625 -3.639089 -0.899577 3.129724 2.331605 -6.548789 5.161308 0.000700 -0.170300 -0.467900 6.404889 4.601383 -37.625158 3.151633 -9.755934 18.161627 -0.812650 -5.089141 13.228854 -0.396000 4.040300 -11.190000 1.464099 -4.086395 -3.653736 1.502610 -3.093239 0.066067 4.781994 -1.256869 12.980282 0.504500 -0.353400 6.215000 -71.232734 -31.695324 40.950648 31.429966 -33.584454 -12.846115 0.483313 1.166984 -15.152902 -7.125000 0.000000 0.000000 89.709447 -29.647975 9.236758 -10.322460 22.001756 -3.640468 1.899254 1.313480 6.581858 7.125000 0.000000 0.000000 
